<?xml version="1.0" standalone="no"?>
<!DOCTYPE svg PUBLIC "-//W3C//DTD SVG 20010904//EN"
 "http://www.w3.org/TR/2001/REC-SVG-20010904/DTD/svg10.dtd">
<svg version="1.0" xmlns="http://www.w3.org/2000/svg"
 width="1229.000000pt" height="1229.000000pt" viewBox="0 0 1229.000000 1229.000000"
 preserveAspectRatio="xMidYMid meet">
<metadata>
Created by potrace 1.14, written by Peter Selinger 2001-2017
</metadata>
<g transform="translate(0.000000,1229.000000) scale(0.100000,-0.100000)"
fill="#000000" stroke="none">
<path d="M3285 11970 c-11 -4 -29 -10 -41 -14 -49 -17 -71 -105 -41 -162 49
-92 344 -444 601 -717 89 -94 156 -168 151 -165 -6 3 -44 9 -85 13 -41 3 -91
8 -110 11 -57 6 -369 7 -450 0 -76 -6 -154 -15 -200 -21 -14 -2 -45 -7 -70
-10 -92 -13 -135 -57 -133 -133 1 -31 9 -52 25 -69 32 -35 46 -41 124 -53 197
-31 240 -39 371 -70 128 -31 338 -97 411 -131 24 -11 61 -27 84 -36 69 -28
257 -132 348 -193 174 -117 290 -217 479 -413 l44 -46 -169 6 c-342 12 -868 6
-1089 -12 -22 -2 -78 -6 -125 -9 -47 -4 -96 -9 -110 -11 -14 -2 -52 -7 -85
-10 -127 -12 -151 -16 -180 -27 -16 -7 -36 -18 -43 -25 -23 -22 -40 -77 -35
-108 13 -69 62 -105 173 -124 36 -6 76 -13 90 -16 13 -2 42 -7 65 -10 22 -4
51 -8 65 -10 14 -2 52 -6 85 -9 33 -4 80 -8 105 -11 25 -2 74 -7 110 -10 36
-2 85 -7 110 -10 25 -2 86 -7 135 -10 50 -3 110 -8 135 -10 25 -2 83 -7 128
-10 46 -4 91 -8 100 -10 10 -1 46 -6 82 -10 36 -4 72 -9 80 -10 8 -2 44 -8 80
-15 99 -18 194 -48 276 -85 41 -19 74 -35 74 -37 0 -2 -19 -3 -43 -4 -59 -1
-227 -13 -257 -18 -14 -3 -68 -12 -120 -21 -423 -71 -854 -279 -1210 -586 -95
-81 -212 -196 -233 -229 -21 -33 -24 -78 -8 -118 17 -40 86 -76 128 -66 15 3
114 44 218 91 251 112 232 103 380 163 157 63 420 151 541 180 112 27 112 27
171 36 26 3 57 9 68 11 11 2 71 6 133 8 238 6 378 -59 458 -213 22 -45 25 -55
13 -63 -8 -5 -20 -9 -27 -9 -25 0 -248 -92 -340 -140 -134 -70 -224 -133 -303
-211 -38 -38 -75 -69 -83 -69 -21 0 -152 -70 -217 -116 -154 -108 -302 -252
-392 -381 -37 -53 -60 -76 -91 -89 -40 -18 -166 -92 -176 -104 -3 -3 -32 -27
-65 -52 -95 -73 -257 -236 -345 -349 -112 -144 -202 -315 -220 -419 -18 -106
-69 -253 -110 -318 -43 -68 -75 -135 -85 -181 -4 -17 -12 -37 -19 -44 -94 -99
-187 -274 -252 -477 -28 -88 -70 -271 -80 -350 -3 -30 -8 -68 -10 -85 -6 -43
-5 -234 1 -273 2 -19 11 -60 20 -93 8 -33 12 -76 9 -97 -12 -82 -15 -95 -28
-121 -49 -94 -86 -292 -81 -426 5 -116 11 -154 41 -244 21 -62 23 -79 14 -105
-28 -77 -33 -294 -11 -396 7 -30 15 -68 17 -85 19 -120 101 -347 199 -550 40
-82 75 -169 78 -193 6 -48 49 -110 150 -220 211 -227 376 -366 592 -500 105
-65 307 -147 390 -158 49 -7 59 -12 83 -48 13 -19 49 -61 81 -93 175 -178 428
-353 713 -492 250 -123 418 -168 633 -173 118 -3 121 -4 195 -43 73 -38 78
-39 180 -41 100 -1 109 -3 178 -38 74 -37 220 -81 302 -90 106 -13 222 -19
315 -19 99 0 296 11 332 17 10 2 45 7 78 10 106 12 257 47 375 86 63 21 135
44 160 50 25 6 54 15 65 20 11 5 57 18 102 29 192 48 454 178 638 316 50 38
82 54 114 59 81 11 243 119 370 246 235 236 411 590 411 829 0 53 26 151 40
151 5 0 37 26 71 58 125 115 213 293 253 506 15 83 17 346 2 377 -5 12 5 24
42 48 55 35 136 115 179 176 57 79 110 218 128 331 9 56 9 201 0 255 -3 24 -9
57 -11 73 -3 16 -9 37 -15 47 -5 11 -7 19 -4 19 2 0 -4 23 -15 51 l-21 52 42
96 c99 232 127 481 84 759 -12 79 -58 221 -102 312 -52 110 -181 493 -188 558
-11 111 -69 262 -147 389 -48 75 -113 224 -122 278 -19 103 -101 303 -184 447
-71 124 -200 294 -313 413 -38 40 -69 81 -69 92 0 57 59 141 137 194 128 89
388 178 593 205 30 3 66 8 80 10 59 8 223 17 315 18 104 0 313 -12 324 -18 3
-2 30 -7 59 -10 30 -3 75 -11 100 -17 26 -6 58 -13 71 -15 58 -12 223 -70 296
-105 100 -49 141 -51 189 -8 63 55 58 102 -31 289 -48 101 -136 235 -202 310
-22 25 -37 48 -33 51 4 4 30 10 59 13 51 6 112 19 273 57 388 92 606 232 653
419 17 67 9 105 -33 143 -35 31 -65 36 -170 24 -30 -3 -120 -13 -200 -22 -80
-9 -158 -18 -175 -21 -16 -3 -46 -7 -65 -9 -19 -2 -53 -6 -75 -9 -40 -6 -87
-12 -160 -21 -90 -12 -121 -16 -145 -20 -14 -2 -47 -7 -75 -10 -27 -3 -66 -8
-85 -10 -19 -2 -60 -7 -90 -11 -30 -3 -57 -8 -60 -9 -3 -2 -39 -6 -80 -10 -41
-4 -84 -9 -95 -11 -11 -2 -44 -6 -75 -9 -31 -3 -67 -7 -80 -9 -23 -4 -23 -4
-6 7 134 86 366 297 366 333 0 6 17 19 38 27 89 36 462 134 617 162 50 10 99
19 110 21 37 8 70 13 124 19 30 4 63 8 74 10 81 16 334 21 462 10 143 -13 178
-12 207 4 41 24 62 70 55 120 -9 70 -38 91 -177 130 -41 12 -97 28 -125 36
-50 15 -284 69 -340 79 -136 25 -196 35 -245 41 -25 3 -63 8 -85 11 -177 22
-297 28 -535 28 -248 0 -429 -11 -560 -34 -30 -5 -79 -12 -107 -15 -29 -4 -67
-10 -85 -15 -19 -6 -28 -6 -22 0 7 7 224 141 838 517 113 69 134 89 143 131 9
49 5 70 -19 103 -31 41 -68 53 -135 43 -32 -4 -60 -8 -63 -9 -3 0 -21 -4 -40
-8 -19 -4 -44 -9 -55 -11 -11 -3 -63 -14 -115 -25 -52 -11 -144 -32 -205 -46
-60 -15 -117 -28 -125 -30 -24 -5 -258 -72 -347 -100 -187 -57 -241 -75 -307
-99 -39 -14 -71 -24 -72 -23 -2 1 11 18 28 37 188 213 345 460 432 680 54 139
56 142 57 175 4 69 -51 125 -122 125 -36 0 -39 -2 -248 -143 -46 -31 -85 -57
-88 -57 -2 0 -39 -21 -80 -46 -42 -25 -91 -55 -109 -65 -19 -10 -49 -27 -66
-37 -18 -10 -85 -45 -148 -76 -63 -32 -132 -67 -153 -78 -61 -32 -60 -27 20
107 7 11 17 30 22 43 6 13 29 61 51 108 22 47 40 89 40 95 0 5 4 17 10 27 21
38 48 165 55 259 11 149 -91 366 -175 374 -93 8 -121 -18 -186 -171 -165 -394
-400 -706 -721 -956 -120 -94 -302 -216 -313 -209 -4 3 -11 24 -15 48 -3 23
-10 56 -15 72 -5 17 -11 41 -14 55 -13 73 -76 294 -123 425 -70 200 -199 440
-275 511 -54 51 -121 55 -170 9 -37 -34 -215 -523 -318 -874 l-22 -73 -34 102
c-109 326 -323 613 -648 870 -90 71 -195 140 -215 141 -111 8 -175 -86 -125
-182 10 -20 36 -69 57 -108 41 -78 82 -218 93 -321 10 -88 10 -367 -1 -575 -5
-93 -9 -209 -9 -258 0 -48 -3 -86 -6 -85 -16 8 -294 212 -748 551 -279 208
-516 385 -527 393 -11 8 -71 51 -132 97 -62 45 -159 116 -215 157 -56 41 -138
100 -182 131 -45 30 -155 107 -246 171 -185 129 -212 143 -255 128z"/>
</g>
</svg>
